<svg width="160" height="160" viewBox="0 0 160 160" fill="none" xmlns="http://www.w3.org/2000/svg">
<g clip-path="url(#clip0)">
<mask id="mask0" mask-type="alpha" maskUnits="userSpaceOnUse" x="1" y="0" width="67" height="49">
<path d="M29.8819 5.28179C17.1225 7.73604 7.14158 17.7701 4.70349 30.6032C3.56825 36.5741 2.63873 42.5731 1.91492 48.5925C14.5244 47.2159 30.047 43.5333 43.2508 34.4569C54.2248 26.9129 60.0483 14.0517 67.1568 0.845764C54.6692 1.43315 42.2121 2.91183 29.8819 5.28179Z" fill="white"/>
</mask>
<g mask="url(#mask0)">
<path fill-rule="evenodd" clip-rule="evenodd" d="M29.8819 5.28179C17.1225 7.73604 7.14158 17.7701 4.70349 30.6032C3.56825 36.5741 2.63873 42.5731 1.91492 48.5925C14.5244 47.2159 30.047 43.5333 43.2508 34.4569C54.2248 26.9129 60.0483 14.0517 67.1568 0.845764C54.6692 1.43315 42.2121 2.91183 29.8819 5.28179Z" fill="url(#paint0_linear)"/>
</g>
<mask id="mask1" mask-type="alpha" maskUnits="userSpaceOnUse" x="0" y="0" width="145" height="115">
<path d="M79.0095 0.554626C74.3416 0.562288 69.6737 0.697642 65.0083 0.95558C58.1486 13.7095 52.5079 26.1186 41.9073 33.4048C29.1962 42.1415 14.273 45.7194 2.10286 47.0704C-0.716187 69.4293 -0.698409 92.0564 2.15873 114.408C13.7092 98.3567 28.7543 91.2417 39.266 89.8115C75.8984 84.8367 87.4235 60.1027 103.944 33.7368C113.041 19.2156 128.978 13.9163 144.028 12.55C139.891 8.92358 134.801 6.36463 129.168 5.2818C112.94 2.16355 96.4902 0.585273 80.0381 0.554626H79.0095Z" fill="white"/>
</mask>
<g mask="url(#mask1)">
<path fill-rule="evenodd" clip-rule="evenodd" d="M79.0095 0.554626C74.3416 0.562288 69.6737 0.697642 65.0083 0.95558C58.1486 13.7095 52.5079 26.1186 41.9073 33.4048C29.1962 42.1415 14.273 45.7194 2.10286 47.0704C-0.716187 69.4293 -0.698409 92.0564 2.15873 114.408C13.7092 98.3567 28.7543 91.2417 39.266 89.8115C75.8984 84.8367 87.4235 60.1027 103.944 33.7368C113.041 19.2156 128.978 13.9163 144.028 12.55C139.891 8.92358 134.801 6.36463 129.168 5.2818C112.94 2.16355 96.4902 0.585273 80.0381 0.554626H79.0095Z" fill="url(#paint1_linear)"/>
</g>
<mask id="mask2" mask-type="alpha" maskUnits="userSpaceOnUse" x="0" y="11" width="160" height="145">
<path d="M103.944 32.4087C87.4235 58.7772 79.5225 77.9821 42.8927 82.9621C31.9822 84.4408 12.7365 85.0078 0.868576 102.034C1.63556 111.55 2.91556 121.032 4.7035 130.443C7.10858 143.113 16.8711 153.052 29.3994 155.665C31.6216 136.738 38.8038 119.758 58.7352 107.732C88.4343 89.8115 100.312 100.762 131.002 91.8035C142.857 88.3431 152.056 82.3288 159.012 76.0157C158.756 60.805 157.199 45.6096 154.344 30.6032C152.863 22.7935 148.589 16.0233 142.593 11.3651C127.972 12.9357 112.752 18.3498 103.944 32.4087Z" fill="white"/>
</mask>
<g mask="url(#mask2)">
<path fill-rule="evenodd" clip-rule="evenodd" d="M103.944 32.4087C87.4235 58.7772 79.5225 77.9821 42.8927 82.9621C31.9822 84.4408 12.7365 85.0078 0.868576 102.034C1.63556 111.55 2.91556 121.032 4.7035 130.443C7.10858 143.113 16.8711 153.052 29.3994 155.665C31.6216 136.738 38.8038 119.758 58.7352 107.732C88.4343 89.8115 100.312 100.762 131.002 91.8035C142.857 88.3431 152.056 82.3288 159.012 76.0157C158.756 60.805 157.199 45.6096 154.344 30.6032C152.863 22.7935 148.589 16.0233 142.593 11.3651C127.972 12.9357 112.752 18.3498 103.944 32.4087Z" fill="url(#paint2_linear)"/>
</g>
<mask id="mask3" mask-type="alpha" maskUnits="userSpaceOnUse" x="90" y="119" width="67" height="42">
<path d="M126.024 123.042C102.499 131.687 93.6178 150.435 90.4889 160.262C103.446 159.721 116.373 158.221 129.168 155.762C141.93 153.308 151.909 143.274 154.344 130.443C155.043 126.768 155.665 123.083 156.208 119.39C155.126 119.367 154.024 119.354 152.907 119.354C143.86 119.354 133.801 120.179 126.024 123.042Z" fill="white"/>
</mask>
<g mask="url(#mask3)">
<path fill-rule="evenodd" clip-rule="evenodd" d="M126.024 123.042C102.499 131.687 93.6178 150.435 90.4889 160.262C103.446 159.721 116.373 158.221 129.168 155.762C141.93 153.308 151.909 143.274 154.344 130.443C155.043 126.768 155.665 123.083 156.208 119.39C155.126 119.367 154.024 119.354 152.907 119.354C143.86 119.354 133.801 120.179 126.024 123.042Z" fill="url(#paint3_linear)"/>
</g>
<mask id="mask4" mask-type="alpha" maskUnits="userSpaceOnUse" x="27" y="74" width="133" height="87">
<path d="M130.596 90.8152C99.4641 99.9018 87.4159 88.7951 57.2876 106.971C37.1962 119.091 29.8743 136.177 27.5708 155.228C28.3302 155.433 29.0997 155.611 29.8819 155.762C46.1079 158.88 62.5524 160.459 79.0019 160.489H80.0483C84.6273 160.482 89.2064 160.351 93.7803 160.104C96.8127 150.698 105.305 133 127.581 124.809C135.784 121.793 146.644 121.15 155.916 121.323C158.004 107.803 159.05 94.1633 159.05 80.5232C159.05 78.6206 159.03 76.718 158.989 74.8154C151.937 81.2179 142.611 87.3037 130.596 90.8152Z" fill="white"/>
</mask>
<g mask="url(#mask4)">
<path fill-rule="evenodd" clip-rule="evenodd" d="M130.596 90.8152C99.4641 99.9018 87.4159 88.7951 57.2876 106.971C37.1962 119.091 29.8743 136.177 27.5708 155.228C28.3302 155.433 29.0997 155.611 29.8819 155.762C46.1079 158.88 62.5524 160.459 79.0019 160.489H80.0483C84.6273 160.482 89.2064 160.351 93.7803 160.104C96.8127 150.698 105.305 133 127.581 124.809C135.784 121.793 146.644 121.15 155.916 121.323C158.004 107.803 159.05 94.1633 159.05 80.5232C159.05 78.6206 159.03 76.718 158.989 74.8154C151.937 81.2179 142.611 87.3037 130.596 90.8152Z" fill="url(#paint4_linear)"/>
</g>
<path d="M39.75 64.55C41.45 64.55 43.0167 64.1833 44.45 63.45C45.9167 62.7167 47.2333 61.6333 48.4 60.2L54.05 65.75C52.4167 67.7833 50.2667 69.4167 47.6 70.65C44.9667 71.8833 42.25 72.5 39.45 72.5C36.8167 72.5 34.3333 72.0333 32 71.1C29.7 70.1667 27.7167 68.9 26.05 67.3C24.3833 65.7 23.0667 63.8 22.1 61.6C21.1333 59.4 20.65 57.0333 20.65 54.5C20.65 51.9667 21.1333 49.6 22.1 47.4C23.0667 45.1667 24.3833 43.25 26.05 41.65C27.75 40.05 29.75 38.7833 32.05 37.85C34.35 36.9167 36.8167 36.45 39.45 36.45C40.8833 36.45 42.3167 36.6167 43.75 36.95C45.1833 37.2833 46.55 37.75 47.85 38.35C49.15 38.9167 50.35 39.6333 51.45 40.5C52.55 41.3333 53.5 42.2667 54.3 43.3L48.5 49C47.2667 47.4667 45.8833 46.3167 44.35 45.55C42.85 44.75 41.2167 44.35 39.45 44.35C38.05 44.35 36.7333 44.6167 35.5 45.15C34.3 45.65 33.25 46.35 32.35 47.25C31.4833 48.15 30.7833 49.2333 30.25 50.5C29.75 51.7333 29.5 53.0667 29.5 54.5C29.5 55.9333 29.75 57.2667 30.25 58.5C30.7833 59.7 31.5 60.75 32.4 61.65C33.3333 62.55 34.4167 63.2667 35.65 63.8C36.9167 64.3 38.2833 64.55 39.75 64.55ZM91.9645 54.3C91.9645 56.9333 91.5145 59.3667 90.6145 61.6C89.7145 63.8333 88.4811 65.7667 86.9145 67.4C85.3478 69 83.4645 70.2667 81.2645 71.2C79.0978 72.1 76.7478 72.55 74.2145 72.55C71.5811 72.55 69.1145 72.0833 66.8145 71.15C64.5478 70.2167 62.5645 68.95 60.8645 67.35C59.1978 65.7167 57.8811 63.8 56.9145 61.6C55.9478 59.4 55.4645 57.0333 55.4645 54.5C55.4645 51.9667 55.9478 49.6 56.9145 47.4C57.8811 45.2 59.1978 43.3 60.8645 41.7C62.5311 40.0667 64.4978 38.7833 66.7645 37.85C69.0311 36.9167 71.4645 36.45 74.0645 36.45C77.0311 36.45 79.8311 37.0667 82.4645 38.3C85.0978 39.5333 87.2478 41.2 88.9145 43.3L82.8645 48.75C81.7311 47.3167 80.4145 46.2333 78.9145 45.5C77.4145 44.7333 75.7978 44.35 74.0645 44.35C72.6645 44.35 71.3645 44.6167 70.1645 45.15C68.9645 45.65 67.9311 46.35 67.0645 47.25C66.2311 48.15 65.5645 49.2333 65.0645 50.5C64.5645 51.7333 64.3145 53.0667 64.3145 54.5C64.3145 55.9667 64.5645 57.3333 65.0645 58.6C65.5978 59.8333 66.2978 60.9167 67.1645 61.85C68.0645 62.75 69.1311 63.4667 70.3645 64C71.5978 64.5 72.9311 64.75 74.3645 64.75C76.3645 64.75 78.1145 64.25 79.6145 63.25C81.1478 62.2167 82.1645 60.8833 82.6645 59.25H73.2145V51.8H91.9645V54.3ZM127.859 56.75C127.859 59.1167 127.476 61.2833 126.709 63.25C125.943 65.1833 124.859 66.8333 123.459 68.2C122.093 69.5667 120.426 70.6333 118.459 71.4C116.493 72.1333 114.309 72.5 111.909 72.5C109.509 72.5 107.309 72.1333 105.309 71.4C103.343 70.6667 101.676 69.6167 100.309 68.25C98.9427 66.8833 97.876 65.2333 97.1094 63.3C96.376 61.3333 96.0094 59.15 96.0094 56.75V37H104.609V56.75C104.609 59.1167 105.276 61.0167 106.609 62.45C107.976 63.85 109.759 64.55 111.959 64.55C114.159 64.55 115.926 63.85 117.259 62.45C118.593 61.0167 119.259 59.1167 119.259 56.75V37H127.859V56.75Z" fill="white"/>
<path d="M147.186 136.375C144.677 136.546 141.098 139.046 139.286 139.866C137.877 140.506 136.661 141.058 135.6 141.058C134.505 141.058 134.341 140.267 134.568 138.523C134.622 138.133 135.135 134.656 132.5 134.808C131.284 134.881 129.385 136.019 124.29 140.96L126.3 135.896C127.772 132.19 123.723 128.499 120.018 130.877L117.358 132.679C117 132.908 116.893 133.392 117.121 133.758L117.954 135.076C118.182 135.442 118.661 135.55 119.025 135.315L121.834 133.416C122.725 132.845 123.805 133.768 123.418 134.739L118.661 146.731C118.332 147.557 118.792 148.875 120.1 148.875C120.502 148.875 120.899 148.719 121.195 148.416C123.239 146.355 128.688 141.058 131.425 138.855C131.318 140.247 131.323 141.731 132.422 142.947C133.164 143.768 134.229 144.183 135.595 144.183C137.32 144.183 138.889 143.47 140.55 142.718C142.149 141.995 145.346 139.661 147.254 139.505C147.666 139.471 147.99 139.148 147.99 138.733V137.166C148 136.722 147.627 136.346 147.186 136.375V136.375Z" fill="white"/>
</g>
<defs>
<linearGradient id="paint0_linear" x1="61.0013" y1="14.5395" x2="14.3645" y2="30.248" gradientUnits="userSpaceOnUse">
<stop stop-color="#121C28"/>
<stop offset="1" stop-color="#2A2367"/>
</linearGradient>
<linearGradient id="paint1_linear" x1="114.404" y1="20.2994" x2="39.0881" y2="89.0192" gradientUnits="userSpaceOnUse">
<stop stop-color="#28235B"/>
<stop offset="1" stop-color="#E6007E"/>
</linearGradient>
<linearGradient id="paint2_linear" x1="147.997" y1="55.3693" x2="21.0256" y2="123.426" gradientUnits="userSpaceOnUse">
<stop stop-color="#FF9500"/>
<stop offset="1" stop-color="#E6007E"/>
</linearGradient>
<linearGradient id="paint3_linear" x1="154.688" y1="138.524" x2="112.34" y2="156.725" gradientUnits="userSpaceOnUse">
<stop stop-color="#E6332A"/>
<stop offset="1" stop-color="#FF645B"/>
</linearGradient>
<linearGradient id="paint4_linear" x1="132.879" y1="107.08" x2="84.638" y2="147.806" gradientUnits="userSpaceOnUse">
<stop stop-color="#FF9500"/>
<stop offset="1" stop-color="#FF645B"/>
</linearGradient>
<clipPath id="clip0">
<rect width="160" height="160" fill="white"/>
</clipPath>
</defs>
</svg>
