<svg width="160" height="160" viewBox="0 0 160 160" fill="none" xmlns="http://www.w3.org/2000/svg">
    <g clip-path="url(#clip0)">
        <mask id="mask0" mask-type="alpha" maskUnits="userSpaceOnUse" x="1" y="0" width="67" height="49">
            <path d="M29.8819 5.28179C17.1225 7.73604 7.14158 17.7701 4.70349 30.6032C3.56825 36.5741 2.63873 42.5731 1.91492 48.5925C14.5244 47.216 30.047 43.5333 43.2508 34.4569C54.2248 26.9129 60.0483 14.0517 67.1568 0.845764C54.6692 1.43315 42.2121 2.91183 29.8819 5.28179Z" fill="white"/>
        </mask>
        <g mask="url(#mask0)">
            <path fill-rule="evenodd" clip-rule="evenodd" d="M29.8819 5.28179C17.1225 7.73604 7.14158 17.7701 4.70349 30.6032C3.56825 36.5741 2.63873 42.5731 1.91492 48.5925C14.5244 47.216 30.047 43.5333 43.2508 34.4569C54.2248 26.9129 60.0483 14.0517 67.1568 0.845764C54.6692 1.43315 42.2121 2.91183 29.8819 5.28179Z" fill="url(#paint0_linear)"/>
        </g>
        <mask id="mask1" mask-type="alpha" maskUnits="userSpaceOnUse" x="0" y="0" width="145" height="115">
            <path d="M79.0095 0.554626C74.3416 0.562288 69.6737 0.697642 65.0083 0.95558C58.1486 13.7095 52.5079 26.1186 41.9073 33.4048C29.1962 42.1415 14.273 45.7194 2.10286 47.0704C-0.716187 69.4293 -0.698409 92.0564 2.15873 114.408C13.7092 98.3567 28.7543 91.2417 39.266 89.8115C75.8984 84.8367 87.4235 60.1027 103.944 33.7368C113.041 19.2156 128.978 13.9163 144.028 12.55C139.891 8.92358 134.801 6.36463 129.168 5.2818C112.94 2.16355 96.4902 0.585273 80.0381 0.554626H79.0095Z" fill="white"/>
        </mask>
        <g mask="url(#mask1)">
            <path fill-rule="evenodd" clip-rule="evenodd" d="M79.0095 0.554626C74.3416 0.562288 69.6737 0.697642 65.0083 0.95558C58.1486 13.7095 52.5079 26.1186 41.9073 33.4048C29.1962 42.1415 14.273 45.7194 2.10286 47.0704C-0.716187 69.4293 -0.698409 92.0564 2.15873 114.408C13.7092 98.3567 28.7543 91.2417 39.266 89.8115C75.8984 84.8367 87.4235 60.1027 103.944 33.7368C113.041 19.2156 128.978 13.9163 144.028 12.55C139.891 8.92358 134.801 6.36463 129.168 5.2818C112.94 2.16355 96.4902 0.585273 80.0381 0.554626H79.0095Z" fill="url(#paint1_linear)"/>
        </g>
        <mask id="mask2" mask-type="alpha" maskUnits="userSpaceOnUse" x="0" y="11" width="160" height="145">
            <path d="M103.944 32.4087C87.4235 58.7772 79.5225 77.9821 42.8927 82.9621C31.9822 84.4408 12.7365 85.0078 0.868576 102.034C1.63556 111.55 2.91556 121.032 4.7035 130.443C7.10858 143.113 16.8711 153.052 29.3994 155.665C31.6216 136.738 38.8038 119.758 58.7352 107.732C88.4343 89.8115 100.312 100.762 131.002 91.8035C142.857 88.3431 152.056 82.3288 159.012 76.0157C158.756 60.805 157.199 45.6096 154.344 30.6032C152.863 22.7935 148.589 16.0233 142.593 11.3651C127.972 12.9357 112.752 18.3498 103.944 32.4087Z" fill="white"/>
        </mask>
        <g mask="url(#mask2)">
            <path fill-rule="evenodd" clip-rule="evenodd" d="M103.944 32.4087C87.4235 58.7772 79.5225 77.9821 42.8927 82.9621C31.9822 84.4408 12.7365 85.0078 0.868576 102.034C1.63556 111.55 2.91556 121.032 4.7035 130.443C7.10858 143.113 16.8711 153.052 29.3994 155.665C31.6216 136.738 38.8038 119.758 58.7352 107.732C88.4343 89.8115 100.312 100.762 131.002 91.8035C142.857 88.3431 152.056 82.3288 159.012 76.0157C158.756 60.805 157.199 45.6096 154.344 30.6032C152.863 22.7935 148.589 16.0233 142.593 11.3651C127.972 12.9357 112.752 18.3498 103.944 32.4087Z" fill="url(#paint2_linear)"/>
        </g>
        <mask id="mask3" mask-type="alpha" maskUnits="userSpaceOnUse" x="90" y="119" width="67" height="42">
            <path d="M126.024 123.042C102.499 131.687 93.6178 150.435 90.4889 160.262C103.446 159.721 116.373 158.221 129.168 155.762C141.93 153.308 151.909 143.274 154.344 130.443C155.043 126.768 155.665 123.083 156.208 119.39C155.126 119.367 154.024 119.354 152.907 119.354C143.86 119.354 133.801 120.179 126.024 123.042Z" fill="white"/>
        </mask>
        <g mask="url(#mask3)">
            <path fill-rule="evenodd" clip-rule="evenodd" d="M126.024 123.042C102.499 131.687 93.6178 150.435 90.4889 160.262C103.446 159.721 116.373 158.221 129.168 155.762C141.93 153.308 151.909 143.274 154.344 130.443C155.043 126.768 155.665 123.083 156.208 119.39C155.126 119.367 154.024 119.354 152.907 119.354C143.86 119.354 133.801 120.179 126.024 123.042Z" fill="url(#paint3_linear)"/>
        </g>
        <mask id="mask4" mask-type="alpha" maskUnits="userSpaceOnUse" x="27" y="74" width="133" height="87">
            <path d="M130.596 90.8152C99.4641 99.9018 87.4159 88.7951 57.2876 106.971C37.1962 119.091 29.8743 136.177 27.5708 155.228C28.3302 155.433 29.0997 155.611 29.8819 155.762C46.1079 158.88 62.5524 160.459 79.0019 160.489H80.0483C84.6273 160.482 89.2064 160.351 93.7803 160.104C96.8127 150.698 105.305 133 127.581 124.809C135.784 121.793 146.644 121.15 155.916 121.323C158.004 107.803 159.05 94.1633 159.05 80.5232C159.05 78.6206 159.03 76.718 158.989 74.8154C151.937 81.2179 142.611 87.3037 130.596 90.8152Z" fill="white"/>
        </mask>
        <g mask="url(#mask4)">
            <path fill-rule="evenodd" clip-rule="evenodd" d="M130.596 90.8152C99.4641 99.9018 87.4159 88.7951 57.2876 106.971C37.1962 119.091 29.8743 136.177 27.5708 155.228C28.3302 155.433 29.0997 155.611 29.8819 155.762C46.1079 158.88 62.5524 160.459 79.0019 160.489H80.0483C84.6273 160.482 89.2064 160.351 93.7803 160.104C96.8127 150.698 105.305 133 127.581 124.809C135.784 121.793 146.644 121.15 155.916 121.323C158.004 107.803 159.05 94.1633 159.05 80.5232C159.05 78.6206 159.03 76.718 158.989 74.8154C151.937 81.2179 142.611 87.3037 130.596 90.8152Z" fill="url(#paint4_linear)"/>
        </g>
        <path d="M19.72 40.08V34H44.92V40.08H35.76V62H28.88V40.08H19.72ZM61.8453 59.2C60.512 60.32 59.1386 61.1333 57.7253 61.64C56.3386 62.1467 54.7653 62.4 53.0053 62.4C51.4053 62.4 49.8986 62.12 48.4853 61.56C47.072 61 45.8453 60.2267 44.8053 59.24C43.792 58.2533 42.9786 57.0933 42.3653 55.76C41.7786 54.4 41.4853 52.96 41.4853 51.44C41.4853 49.92 41.7653 48.4933 42.3253 47.16C42.912 45.8 43.6986 44.6267 44.6853 43.64C45.672 42.6533 46.832 41.88 48.1653 41.32C49.5253 40.76 50.9786 40.48 52.5253 40.48C54.072 40.48 55.4986 40.7733 56.8053 41.36C58.112 41.9467 59.232 42.7467 60.1653 43.76C61.1253 44.7733 61.872 46 62.4053 47.44C62.9386 48.8533 63.2053 50.3867 63.2053 52.04V53.64H48.1253C48.552 54.6267 49.2186 55.44 50.1253 56.08C51.032 56.6933 52.0986 57 53.3253 57C54.2053 57 55.0053 56.8667 55.7253 56.6C56.4453 56.3067 57.0586 55.9067 57.5653 55.4L61.8453 59.2ZM52.4053 45.76C51.3386 45.76 50.4186 46.0533 49.6453 46.64C48.872 47.2267 48.3253 48.0533 48.0053 49.12H56.8453C56.4986 48.1067 55.9253 47.2933 55.1253 46.68C54.352 46.0667 53.4453 45.76 52.4053 45.76ZM66.2344 62V40.84H72.7144V42.96C73.4077 42.1333 74.221 41.4933 75.1544 41.04C76.0877 40.5867 77.1277 40.36 78.2744 40.36C78.8877 40.3867 79.381 40.44 79.7544 40.52C80.1277 40.5733 80.4477 40.6933 80.7144 40.88V46.52C80.2877 46.3333 79.8077 46.1867 79.2744 46.08C78.741 45.9467 78.1944 45.88 77.6344 45.88C76.621 45.88 75.6744 46.12 74.7944 46.6C73.941 47.08 73.2477 47.7333 72.7144 48.56V62H66.2344ZM83.5 62V40.84H89.98V42.2C90.7267 41.6133 91.54 41.1733 92.42 40.88C93.3267 40.5867 94.2733 40.44 95.26 40.44C96.5667 40.44 97.7533 40.7067 98.82 41.24C99.9133 41.7467 100.82 42.4533 101.54 43.36C102.393 42.4267 103.407 41.7067 104.58 41.2C105.753 40.6933 107.033 40.44 108.42 40.44C110.82 40.44 112.78 41.24 114.3 42.84C115.847 44.44 116.62 46.48 116.62 48.96V62H110.14V49.84C110.14 48.6933 109.82 47.7733 109.18 47.08C108.567 46.36 107.74 46 106.7 46C105.98 46 105.327 46.1467 104.74 46.44C104.153 46.7067 103.647 47.0933 103.22 47.6C103.247 47.8133 103.26 48.04 103.26 48.28C103.287 48.4933 103.3 48.72 103.3 48.96V62H96.82V49.84C96.82 48.6933 96.5 47.7733 95.86 47.08C95.2467 46.36 94.42 46 93.38 46C92.66 46 92.0067 46.1333 91.42 46.4C90.86 46.64 90.38 47.0133 89.98 47.52V62H83.5ZM118.813 59.64L121.893 55.28C123.226 56.08 124.44 56.6667 125.533 57.04C126.626 57.3867 127.706 57.56 128.773 57.56C129.84 57.56 130.68 57.4133 131.293 57.12C131.933 56.8 132.253 56.3867 132.253 55.88C132.253 55.48 132.08 55.16 131.733 54.92C131.386 54.6533 130.84 54.4667 130.093 54.36L125.893 53.72C123.813 53.4 122.213 52.7067 121.093 51.64C119.973 50.5467 119.413 49.1333 119.413 47.4C119.413 45.2667 120.226 43.5867 121.853 42.36C123.48 41.1333 125.706 40.52 128.533 40.52C130.053 40.52 131.573 40.7467 133.093 41.2C134.64 41.6267 136.066 42.2533 137.373 43.08L134.293 47.24C133.146 46.5733 132.053 46.0933 131.013 45.8C129.973 45.48 128.933 45.32 127.893 45.32C127.066 45.32 126.4 45.4667 125.893 45.76C125.386 46.0267 125.133 46.3867 125.133 46.84C125.133 47.2667 125.32 47.6133 125.693 47.88C126.066 48.12 126.706 48.3067 127.613 48.44L131.813 49.08C133.893 49.3733 135.493 50.0667 136.613 51.16C137.76 52.2267 138.333 53.5867 138.333 55.24C138.333 56.2533 138.093 57.2 137.613 58.08C137.133 58.96 136.466 59.72 135.613 60.36C134.786 61 133.786 61.5067 132.613 61.88C131.44 62.2267 130.173 62.4 128.813 62.4C126.813 62.4 124.946 62.1733 123.213 61.72C121.506 61.24 120.04 60.5467 118.813 59.64Z" fill="white"/>
        <path d="M147.186 136.375C144.677 136.546 141.098 139.046 139.286 139.866C137.877 140.506 136.661 141.058 135.6 141.058C134.505 141.058 134.341 140.267 134.568 138.523C134.622 138.133 135.135 134.656 132.5 134.808C131.284 134.881 129.385 136.019 124.29 140.96L126.3 135.896C127.772 132.19 123.723 128.499 120.018 130.877L117.358 132.679C117 132.908 116.893 133.392 117.121 133.758L117.954 135.076C118.182 135.442 118.661 135.55 119.025 135.315L121.834 133.416C122.725 132.845 123.805 133.768 123.418 134.739L118.661 146.731C118.332 147.557 118.792 148.875 120.1 148.875C120.502 148.875 120.899 148.719 121.195 148.416C123.239 146.355 128.688 141.058 131.425 138.855C131.318 140.247 131.323 141.731 132.422 142.947C133.164 143.768 134.229 144.183 135.595 144.183C137.32 144.183 138.889 143.47 140.55 142.718C142.149 141.995 145.346 139.661 147.254 139.505C147.666 139.471 147.99 139.148 147.99 138.733V137.166C148 136.722 147.627 136.346 147.186 136.375Z" fill="white"/>
    </g>
    <defs>
        <linearGradient id="paint0_linear" x1="61.0013" y1="14.5395" x2="14.3645" y2="30.248" gradientUnits="userSpaceOnUse">
            <stop stop-color="#121C28"/>
            <stop offset="1" stop-color="#2A2367"/>
        </linearGradient>
        <linearGradient id="paint1_linear" x1="114.404" y1="20.2994" x2="39.0881" y2="89.0192" gradientUnits="userSpaceOnUse">
            <stop stop-color="#28235B"/>
            <stop offset="1" stop-color="#E6007E"/>
        </linearGradient>
        <linearGradient id="paint2_linear" x1="147.997" y1="55.3693" x2="21.0256" y2="123.426" gradientUnits="userSpaceOnUse">
            <stop stop-color="#FF9500"/>
            <stop offset="1" stop-color="#E6007E"/>
        </linearGradient>
        <linearGradient id="paint3_linear" x1="154.688" y1="138.524" x2="112.34" y2="156.725" gradientUnits="userSpaceOnUse">
            <stop stop-color="#E6332A"/>
            <stop offset="1" stop-color="#FF645B"/>
        </linearGradient>
        <linearGradient id="paint4_linear" x1="132.879" y1="107.08" x2="84.638" y2="147.806" gradientUnits="userSpaceOnUse">
            <stop stop-color="#FF9500"/>
            <stop offset="1" stop-color="#FF645B"/>
        </linearGradient>
        <clipPath id="clip0">
            <rect width="160" height="160" fill="white"/>
        </clipPath>
    </defs>
</svg>
